<svg width="70" height="70" xmlns="http://www.w3.org/2000/svg">

  <!-- lines -->
  <line x1="25" y1="5" x2="25" y2="20" stroke="#115B9E" stroke-width="4" />
  <line x1="45" y1="5" x2="45" y2="20" stroke="#115B9E" stroke-width="4" />

  <line x1="50" y1="25" x2="65" y2="25" stroke="#115B9E" stroke-width="4" />
  <path d="M 50 35 h 15 v 10" stroke="#115B9E" stroke-width="4" fill="none" />
  <!-- <line x1="50" y1="45" x2="65" y2="45" stroke="#115B9E" stroke-width="4" /> -->

  <line x1="50" y1="35" x2="65" y2="35" stroke="#115B9E" stroke-width="4" />
  <line x1="65" y1="35" x2="65" y2="45" stroke="#115B9E" stroke-width="4" />

  <line x1="25" y1="50" x2="25" y2="65" stroke="#115B9E" stroke-width="4" />
  <line x1="45" y1="50" x2="45" y2="65" stroke="#115B9E" stroke-width="4" />

  <path d="M 5 25 v 10 h 15" stroke="#115B9E" stroke-width="4" fill="none" />
  <!-- <line x1="5" y1="25" x2="20" y2="25" stroke="#115B9E" stroke-width="4" /> -->
  <line x1="5" y1="45" x2="20" y2="45" stroke="#115B9E" stroke-width="4" />

  <!-- Rounded rectangle with no fill -->
  <rect x="20" y="20" width="30" height="30" rx="4" ry="4" fill="none" stroke="#1B78D1" stroke-width="4" />
    <!-- Sharp corner square with fill -->
  <rect x="26" y="26" width="18" height="18" fill="#5CADEC" />

  <!-- circles around the square -->
  <circle cx="25" cy="5" r="5" fill="#5CADEC" />
  <circle cx="45" cy="5" r="5" fill="#5CADEC" />
  <circle cx="65" cy="25" r="5" fill="#5CADEC" />
  <circle cx="65" cy="45" r="5" fill="#5CADEC" />
  <circle cx="25" cy="65" r="5" fill="#5CADEC" />
  <circle cx="45" cy="65" r="5" fill="#5CADEC" />

  <circle cx="5" cy="25" r="5" fill="#5CADEC" />
  <circle cx="5" cy="45" r="5" fill="#5CADEC" />
</svg>
